<svg xmlns="http://www.w3.org/2000/svg" viewBox="0 0 300 300">
<rect width="300" height="300" rx="24" fill="#fffdf8"/><rect x="22" y="22" width="256" height="256" rx="18" fill="#fff" stroke="#c5a25d" stroke-width="4"/>
<g fill="#0B1F3A">
<rect x="42" y="42" width="62" height="62" rx="4"/><rect x="196" y="42" width="62" height="62" rx="4"/><rect x="42" y="196" width="62" height="62" rx="4"/>
<rect x="57" y="57" width="32" height="32" fill="#fff"/><rect x="211" y="57" width="32" height="32" fill="#fff"/><rect x="57" y="211" width="32" height="32" fill="#fff"/>
<rect x="124" y="42" width="18" height="18"/><rect x="154" y="42" width="18" height="18"/><rect x="124" y="72" width="18" height="48"/><rect x="154" y="90" width="48" height="18"/>
<rect x="124" y="142" width="18" height="18"/><rect x="154" y="142" width="18" height="18"/><rect x="184" y="142" width="48" height="18"/><rect x="244" y="142" width="18" height="18"/>
<rect x="124" y="184" width="48" height="18"/><rect x="196" y="184" width="18" height="18"/><rect x="244" y="184" width="18" height="18"/>
<rect x="124" y="214" width="18" height="48"/><rect x="154" y="244" width="48" height="18"/><rect x="214" y="214" width="48" height="18"/><rect x="214" y="244" width="18" height="18"/><rect x="244" y="244" width="18" height="18"/>
</g><text x="150" y="290" text-anchor="middle" font-family="Arial" font-size="12" fill="#0B1F3A">QR PLACEHOLDER</text>
</svg>